<svg xmlns="http://www.w3.org/2000/svg" width="900" height="420" viewBox="0 0 900 420" role="img" aria-label="Direct proportion graph y equals kx passes through the origin">
  <defs>
    <style>
      .t{font:600 22px ui-sans-serif,system-ui,-apple-system,Segoe UI,Roboto,Helvetica,Arial;fill:#0f172a}
      .s{font:500 18px ui-sans-serif,system-ui,-apple-system,Segoe UI,Roboto,Helvetica,Arial;fill:#334155}
      .axis{stroke:#0f172a;stroke-width:2}
      .grid{stroke:#e2e8f0;stroke-width:1}
    </style>
  </defs>
  <rect width="900" height="420" fill="#ffffff"/>
  <text x="40" y="60" class="t">Direct proportion: y ∝ x</text>
  <text x="40" y="92" class="s">Graph is a straight line through the origin (0,0)</text>

  <g transform="translate(70,110)">
    <rect x="0" y="0" width="520" height="270" fill="#ffffff" stroke="#e2e8f0"/>
    <!-- grid -->
    <g>
      <line x1="104" y1="0" x2="104" y2="270" class="grid"/>
      <line x1="208" y1="0" x2="208" y2="270" class="grid"/>
      <line x1="312" y1="0" x2="312" y2="270" class="grid"/>
      <line x1="416" y1="0" x2="416" y2="270" class="grid"/>
      <line x1="0" y1="54" x2="520" y2="54" class="grid"/>
      <line x1="0" y1="108" x2="520" y2="108" class="grid"/>
      <line x1="0" y1="162" x2="520" y2="162" class="grid"/>
      <line x1="0" y1="216" x2="520" y2="216" class="grid"/>
    </g>
    <!-- axes -->
    <line x1="0" y1="270" x2="520" y2="270" class="axis"/>
    <line x1="0" y1="270" x2="0" y2="0" class="axis"/>
    <!-- line y = 0.5x scaled -->
    <line x1="0" y1="270" x2="520" y2="10" stroke="#16a34a" stroke-width="4"/>
    <circle cx="0" cy="270" r="6" fill="#16a34a"/>
    <text x="10" y="258" class="s">(0,0)</text>
    <text x="390" y="60" class="s" fill="#16a34a">y = kx</text>
  </g>

  <text x="640" y="170" class="s">Key feature:</text>
  <text x="640" y="205" class="s">• straight line</text>
  <text x="640" y="238" class="s">• passes through origin</text>
  <text x="640" y="271" class="s">• k is the constant of proportion</text>
</svg>
